<svg
  viewBox="0 0 1024 1024"
  version="1.1"
  xmlns="http://www.w3.org/2000/svg"
>
  <path
    fill="currentColor"
    d="M791.08 872.208c3.506 0 6.506-3.002 6.506-6.506V448.368c0-3.504-3-6.506-6.506-6.506H232.524c-3.514 0-6.524 3.01-6.524 6.506v417.334c0 3.496 3.01 6.506 6.524 6.506H791.08zM542 663.852c27.058-11.634 46-38.528 46-69.852 0-41.98-34.02-76-76-76s-76 34.02-76 76c0 29.756 17.094 55.514 42 67.992v92.628c0 17.674 14.326 32 32 32s32-14.326 32-32v-90.768zM285.594 377.86v-63.656C285.594 189.266 386.866 88 511.8 88c124.934 0 226.208 101.266 226.208 226.206v63.656h53.072c38.856 0 70.506 31.66 70.506 70.506v417.334c0 38.846-31.65 70.506-70.506 70.506H232.524C193.67 936.208 162 904.548 162 865.7V448.368c0-38.846 31.67-70.506 70.524-70.506h53.07z m64 0h324.414v-63.656c0-89.592-72.62-162.206-162.208-162.206s-162.206 72.614-162.206 162.206v63.656z"
  ></path>
</svg>
