<svg
  viewBox="0 0 1024 1024"
  version="1.1"
  xmlns="http://www.w3.org/2000/svg"
>
  <path
    fill="currentColor"
    d="M408.283 428.103c29.865-29.895 55.898-48.296 2.968-114.189-52.933-65.89-88.241-15.292-117.212 13.681-33.379 33.406-1.759 157.93 121.33 281.043 123.087 123.055 247.642 154.734 281.05 121.299 28.97-28.944 79.54-64.22 13.68-117.18-65.86-52.96-84.294-26.927-114.188 2.964-20.908 20.822-73.697-22.75-119.314-68.338-45.618-45.588-89.22-98.403-68.314-119.28zM512 998.4c268.631 0 486.4-217.769 486.4-486.4S780.631 25.6 512 25.6 25.6 243.369 25.6 512 243.369 998.4 512 998.4z m0 25.6C229.23 1024 0 794.77 0 512S229.23 0 512 0s512 229.23 512 512-229.23 512-512 512z"
  ></path>
</svg>
