<svg
  viewBox="0 0 1024 1024"
  version="1.1"
  xmlns="http://www.w3.org/2000/svg"
>
  <path
    fill="currentColor"
    d="M865.922728 583.211878c-16.276708 0-29.580712 13.246699-29.667693 29.727045l0 215.125569c0 17.992793-14.58723 32.637328-32.520671 32.637328L181.762717 860.70182c-17.935488 0-32.520671-14.645558-32.520671-32.637328L149.242046 292.155966c0-17.992793 14.586207-32.637328 32.520671-32.637328l291.230897 0c16.304338-0.029676 29.580712-13.363356 29.580712-29.724998 0-16.392342-13.276375-29.727045-29.610388-29.727045l-295.336402 0c-48.358381 0-87.721901 39.450501-87.721901 87.925538l0 544.205493c0 48.475038 39.36352 87.925538 87.721901 87.925538l630.239961 0c48.358381 0 87.720877-39.450501 87.720877-87.925538L895.588375 612.762915C895.501394 596.458577 882.19739 583.211878 865.922728 583.211878z"
  ></path>
  <path
    fill="currentColor"
    d="M930.818761 338.183256l0-0.318248L727.07645 133.511783l-6.435573-6.259564-0.814552 0.844228c-4.511757-2.532683-9.606799-3.873214-14.876826-3.873214-16.974603 0-30.774911 13.829983-30.774911 30.832216 0 5.298679 1.338485 10.393721 3.873214 14.907525l-0.903579 0.931209 141.845589 142.224212-145.573493 0.057305C436.396091 342.726735 378.197598 489.375723 361.049033 717.050096c0 17.004279 13.800307 30.832216 30.772864 30.832216 13.858636 0 25.620517-9.229199 29.464055-21.893636l1.397836-8.181333c18.022469-215.329207 60.470233-321.567833 251.839749-342.937536l144.466276 0L683.433464 510.804778l-5.502317 7.744381c-1.951445 4.104481-2.969635 9.112542-2.969635 13.654998 0 17.002232 13.799284 30.832216 30.772864 30.832216 4.832052 0 10.160407-1.164522 14.439874-3.37691L929.954067 350.740246c1.860371-1.305739 4.140297-4.52506 4.140297-6.970762C934.093341 341.323782 932.679132 339.488994 930.818761 338.183256z"
  ></path>
</svg>
