<svg
  viewBox="0 0 1024 1024"
  version="1.1"
  xmlns="http://www.w3.org/2000/svg"
>
  <path
    fill="currentColor"
    d="M980.129328 277.66595c-25.529443-54.042847-62.077847-102.542444-108.632139-144.154167-46.529733-41.590234-100.742449-74.229608-161.131841-97.014544-62.500473-23.580045-128.966257-35.536354-197.552332-35.536354-68.596308 0-135.147026 11.95631-197.802018 35.534308-60.562331 22.790052-114.960265 55.428404-161.684426 97.006358-46.782489 41.630143-83.520205 90.128717-109.193935 144.148028-26.612101 55.992245-40.10337 115.480104-40.10337 176.809915 0 144.607492 69.542866 275.263228 190.952007 359.022886 0.332575 19.534915 0.105401 125.359103-0.149403 196.918905l-0.045025 12.637832 197.648522-126.740566c36.996612 7.540743 78.467119 11.682064 117.132744 11.682064 281.437857 0 510.403642-203.447599 510.403642-453.520097C1019.971755 393.111263 1006.566444 333.627497 980.129328 277.66595zM823.292304 725.637682c-82.772168 72.702835-193.037505 112.743784-310.479287 112.743784-44.484144 0-94.488001-6.175653-133.75533-16.519232l-2.869351-0.7552-117.176746 72.964802 0-113.882724c0-7.748475-7.813966-12.747325-16.086373-18.041912-1.311879-0.839111-2.635013-1.684362-3.906983-2.532683-107.436918-71.823815-169.056324-183.047989-169.056324-305.155025 0-211.694423 197.860347-383.921973 441.062368-383.921973 242.701624 0 440.154695 172.22755 440.154695 383.921973C951.178973 556.89449 905.76055 653.200906 823.292304 725.637682z"
  ></path>
  <path
    fill="currentColor"
    d="M249.033331 458.3368m-70.783113 0a69.171 69.171 0 1 0 141.566226 0 69.171 69.171 0 1 0-141.566226 0Z"
  ></path>
  <path
    fill="currentColor"
    d="M514.443144 458.3368m-70.78209 0a69.17 69.17 0 1 0 141.564179 0 69.17 69.17 0 1 0-141.564179 0Z"
  ></path>
  <path
    fill="currentColor"
    d="M779.852956 458.3368m-70.783113 0a69.171 69.171 0 1 0 141.566226 0 69.171 69.171 0 1 0-141.566226 0Z"
  ></path>
</svg>
