<svg
  viewBox="0 0 1024 1024"
  version="1.1"
  xmlns="http://www.w3.org/2000/svg"
>
  <path
    fill="currentColor"
    d="M500.06272 494.09536c53.71136-35.80928 89.52064-101.45536 89.52064-173.07136 0-113.39008-95.488-208.88064-208.88064-208.88064-113.39008 0-202.91072 95.488-202.91072 208.88064 0 71.616 35.80672 137.26464 89.52064 173.07136C130.048 547.80672 34.56 702.976 34.56 876.04736c0 17.90464 11.93728 29.83936 29.83936 29.83936s29.83936-11.93472 29.83936-29.83936c0-190.976 131.29728-346.14272 292.43136-346.14272s292.43136 155.16672 292.43136 346.14272c0 17.90464 11.93472 29.83936 29.83936 29.83936 17.90208 0 29.83936-11.93472 29.83936-29.83936-5.9648-173.07136-101.4528-328.24064-238.71744-381.952zM237.47328 321.024c0-83.55072 65.64864-149.19936 149.19936-149.19936s149.19936 65.64864 149.19936 149.19936c0 83.55328-71.616 149.19936-149.19936 149.19936-83.55328 0-149.19936-65.64608-149.19936-149.19936z m590.83264 214.848c-11.93728-11.93728-29.83936-5.96736-41.77664 5.96736-11.93472 11.93472-5.96736 29.83936 5.96736 41.77408 89.52064 65.6512 137.26464 173.07136 137.26464 298.40128 0 17.90464 11.93472 29.83936 29.83936 29.83936s29.83936-11.93472 29.83936-29.83936c0-143.22944-59.67872-274.52672-161.13408-346.14272zM637.32736 177.792c83.55328 0 149.19936 65.64864 149.19936 149.19936 0 59.68128-29.83936 107.42272-83.55328 131.29472-11.93472 5.96992-17.90208 23.872-11.93472 35.80928s17.90464 17.90464 23.872 17.90464 5.96736 0 11.93472-5.96736c71.61856-35.80928 113.39264-107.42528 113.39264-185.00864 0-113.39008-95.488-208.88064-208.88064-208.88064-17.90464 0-29.83936 11.93728-29.83936 29.83936s23.87456 35.80928 35.80928 35.80928z"
  ></path>
</svg>
