<svg
  viewBox="0 0 1024 1024"
  version="1.1"
  xmlns="http://www.w3.org/2000/svg"
>
  <path
    fill="currentColor"
    d="M749.098667 889.6c-1.109333 28.714667-25.173333 51.2-53.930667 50.346667-347.989333-11.52-620.330667-303.616-608.170667-652.117334 1.109333-28.757333 25.173333-51.2 53.930667-50.346666l126.592 4.437333c28.629333 0.981333 51.328 24.704 50.346667 53.333333-1.408 42.24 3.712 84.48 15.146666 125.141334 5.333333 19.157333 0.085333 38.826667-14.592 52.48l-73.301333 69.034666a532.181333 532.181333 0 0 0 207.786667 223.061334l73.216-68.352c14.464-13.269333 35.072-17.493333 53.589333-10.88a394.154667 394.154667 0 0 0 123.477333 23.850666c28.757333 1.109333 51.2 25.173333 50.304 53.973334l-4.394666 126.037333z m-125.354667-354.645333a32 32 0 1 1-61.824-16.554667 101.333333 101.333333 0 0 0-71.637333-124.117333 32 32 0 1 1 16.554666-61.781334 165.333333 165.333333 0 0 1 116.906667 202.453334z m128.810667 34.56a32 32 0 1 1-61.866667-16.597334A234.666667 234.666667 0 0 0 524.8 265.514667a32 32 0 1 1 16.554667-61.824 298.666667 298.666667 0 0 1 211.2 365.781333z m154.538666 41.386666a32 32 0 0 1-61.824-16.554666 394.666667 394.666667 0 0 0-279.04-483.413334 32 32 0 0 1 16.554667-61.781333c244.650667 65.536 389.888 317.056 324.309333 561.749333z"
  ></path>
</svg>
