<svg
  viewBox="0 0 1024 1024"
  version="1.1"
  xmlns="http://www.w3.org/2000/svg"
>
  <path
    fill="currentColor"
    d="M863.002122 633.667918c-20.981551-79.558531-72.578612-154.373224-117.927183-181.394285a36.529633 36.529633 0 0 1-5.705143-4.20049 118.951184 118.951184 0 0 0-9.968327-7.523265c-9.633959-6.687347-21.190531-13.437388-34.586122-19.811266a301.014204 301.014204 0 0 0-68.419918-22.799673c-13.625469-2.821224-32.391837-5.663347-54.794449-8.40098a1954.586122 1954.586122 0 0 0-85.681633-8.442775 36.529633 36.529633 0 0 1-33.792-36.425143v-96.276898L155.000163 458.85649 452.127347 669.361633v-94.772245c0-19.456 15.276408-35.526531 34.732408-36.466939 1.504653-0.083592 4.137796-0.188082 7.794939-0.271673 44.303673-1.212082 96.297796 1.003102 146.640979 9.487673 35.317551 5.955918 66.56 14.628571 92.786939 26.749388 55.546776 25.6 103.152327 63.195429 138.13551 100.728163a568.487184 568.487184 0 0 0-9.216-41.127184z m70.635102-18.599183a688.587755 688.587755 0 0 1 20.020245 119.222857c2.194286 26.770286 2.695837 49.799837 2.236082 67.542204l-0.167184 4.660245c-1.755429 35.798204-48.650449 47.91902-67.521306 17.428898a3033.485061 3033.485061 0 0 0-23.990857-38.09698l-1.253877-1.964408c-8.40098-13.10302-15.067429-23.196735-19.079837-28.755592-9.236898-12.935837-25.39102-31.472327-45.16049-49.799837-28.525714-26.456816-60.52049-48.901224-95.232-64.909061-19.602286-9.048816-44.888816-16.091429-74.334041-21.044245-34.586122-5.851429-70.844082-8.359184-103.988245-8.735347v58.723266a73.038367 73.038367 0 0 1-115.252245 59.600979L112.765388 518.478367a73.038367 73.038367 0 0 1 0-119.222857L409.913469 188.792163a73.038367 73.038367 0 0 1 115.252245 59.60098v62.756571a1978.827755 1978.827755 0 0 1 55.275102 5.872327c24.241633 2.96751 44.805224 6.060408 60.771266 9.383183 30.92898 6.394776 59.28751 16.154122 84.971102 28.358531 27.334531 12.998531 47.166694 26.331429 59.245714 36.571429 61.795265 38.452245 123.005388 128.125388 148.208326 223.712653z"
  ></path>
</svg>
