<svg
  viewBox="0 0 1024 1024"
  version="1.1"
  xmlns="http://www.w3.org/2000/svg"
>
  <path
    fill="currentColor"
    d="M712 342l15 0c-13.333-74-54.167-135.667-122.5-185S456.667 83 366 83c-66.667 0-128 13.667-184 41S81.667 188.5 49 235.5 0 333.667 0 389c0 32 6 63.333 18 94 12 30.666 28.667 58.5 50 83.5s46.667 46.833 76 65.5l3 2-35 111 132-68c2.667 0.667 4.667 1.333 6 2 37.333 10.667 76 16 116 16 6.667 0 14.667-0.333 24-1-1.333-6-2.833-12-4.5-18s-3-12-4-18-1.667-12.167-2-18.5S379 627 379 621c0-50.667 14.833-97.5 44.5-140.5s70-76.833 121-101.5S651.333 342 712 342zM493 234c9.333 0 18 2.167 26 6.5s14.167 10.333 18.5 18 6.5 16 6.5 25-2.167 17.333-6.5 25-10.5 13.667-18.5 18-16.667 6.5-26 6.5c-6.667 0-13.167-1.333-19.5-4s-11.833-6.167-16.5-10.5-8.333-9.667-11-16-4-12.833-4-19.5 1.333-13 4-19 6.333-11.167 11-15.5 10.167-7.833 16.5-10.5S486.333 234 493 234zM239 333c-14.667 0-27-4.833-37-14.5S187 297 187 283c0-8.667 2.333-16.833 7-24.5s11-13.667 19-18 16.667-6.5 26-6.5c5.333 0 10.667 0.833 16 2.5s10 4 14 7 7.667 6.5 11 10.5 5.833 8.5 7.5 13.5 2.5 10.167 2.5 15.5c0 21.333-10 36.667-30 46C252.667 331.667 245.667 333 239 333zM406 623c0 71.333 30.167 132.167 90.5 182.5S629.667 881 715 881c33.333 0 66-4.333 98-13l5-2 111 57-29-93 2-2c38-24 67.833-54 89.5-90s32.5-74.333 32.5-115c0-71.333-30.167-132.333-90.5-183S800.333 364 715 364c-89.333 0-164.667 27.333-226 82C433.667 496 406 555 406 623zM779 534c0-12 4.167-22 12.5-30s18.5-12 30.5-12 22.333 4 31 12 13 17.834 13 29.5c0 11.667-4.333 21.667-13 30S834 576 822 576c-8 0-15.333-1.833-22-5.5s-11.833-8.833-15.5-15.5S779 541.333 779 534zM564 534c0-12 4.167-22 12.5-30s18.5-12 30.5-12 22.333 4 31 12 13 18 13 30c0 4.667-0.833 9-2.5 13s-3.833 7.833-6.5 11.5-5.667 6.833-9 9.5-7.333 4.667-12 6-9.333 2-14 2c-8 0-15.333-1.833-22-5.5s-11.833-8.833-15.5-15.5S564 541.333 564 534z"
  ></path>
</svg>
